<svg viewBox="0 0 1280 1120" xmlns="http://www.w3.org/2000/svg" role="img" font-family="Noto Sans CJK TC, Microsoft JhengHei, Arial, sans-serif">
<title>VOXEN 3-tier Network Architecture</title>
<desc>VOXEN 三層式網路部署</desc>

<defs>
  <marker id="nt-arrow" viewBox="0 0 10 10" refX="9" refY="5" markerWidth="6" markerHeight="6" orient="auto">
    <path d="M0,0 L10,5 L0,10 z" fill="#2C5282"/>
  </marker>
  <pattern id="fw-pattern" patternUnits="userSpaceOnUse" width="8" height="8">
    <path d="M0,0 L8,8 M8,0 L0,8" stroke="#9B2C2C" stroke-width="1"/>
  </pattern>
</defs>

<text x="640" y="32" text-anchor="middle" font-size="22" font-weight="700" fill="#1A202C">3-tier Network Architecture  ·  三層式網路部署</text>
<text x="640" y="54" text-anchor="middle" font-size="12" fill="#4A5568">Presentation / Application / Data 三層 × VLAN 分隔 × 防火牆 × 各埠口協定</text>

<g transform="translate(20, 80)">
  <rect width="1240" height="58" rx="6" fill="#FED7D7" stroke="#9B2C2C" stroke-width="1.5" stroke-dasharray="4,3"/>
  <text x="15" y="20" font-size="11" font-weight="700" fill="#742A2A">🌐 外部網路  ·  External Networks (Untrusted)</text>

  <g transform="translate(15, 26)" font-size="10" fill="#742A2A">
    <rect width="170" height="26" rx="3" fill="#FFFFFF" stroke="#9B2C2C"/>
    <text x="85" y="17" text-anchor="middle" font-weight="600">Internet 客戶來源</text>

    <rect x="180" y="0" width="190" height="26" rx="3" fill="#FFFFFF" stroke="#9B2C2C"/>
    <text x="275" y="17" text-anchor="middle" font-weight="600">AI 雲端供應商</text>

    <rect x="380" y="0" width="160" height="26" rx="3" fill="#FFFFFF" stroke="#9B2C2C"/>
    <text x="460" y="17" text-anchor="middle" font-weight="600">WhatsApp / Line API</text>

    <rect x="550" y="0" width="140" height="26" rx="3" fill="#FFFFFF" stroke="#9B2C2C"/>
    <text x="620" y="17" text-anchor="middle" font-weight="600">SIP Trunk（電信）</text>

    <rect x="700" y="0" width="160" height="26" rx="3" fill="#FFFFFF" stroke="#9B2C2C"/>
    <text x="780" y="17" text-anchor="middle" font-weight="600">CRM 外部 API</text>

    <rect x="870" y="0" width="140" height="26" rx="3" fill="#FFFFFF" stroke="#9B2C2C"/>
    <text x="940" y="17" text-anchor="middle" font-weight="600">客戶 AD / LDAP</text>

    <rect x="1020" y="0" width="190" height="26" rx="3" fill="#FFFFFF" stroke="#9B2C2C"/>
    <text x="1115" y="17" text-anchor="middle" font-weight="600">金流 / eKYC / PCI</text>
  </g>
</g>

<g transform="translate(20, 148)">
  <rect width="1240" height="28" rx="3" fill="url(#fw-pattern)" stroke="#9B2C2C" stroke-width="1.5"/>
  <rect x="440" y="4" width="360" height="20" rx="2" fill="#FFFFFF" stroke="#9B2C2C"/>
  <text x="620" y="18" text-anchor="middle" font-size="10" font-weight="700" fill="#742A2A">FW-0  外部防火牆 + WAF + DDoS 防護 （443 / 5061 / 8443）</text>
</g>

<g transform="translate(20, 184)">
  <rect width="1240" height="180" rx="8" fill="#EBF8FF" stroke="#2C5282" stroke-width="1.5"/>
  <rect width="1240" height="28" rx="8" fill="#2C5282"/>
  <rect y="20" width="1240" height="8" fill="#2C5282"/>
  <text x="15" y="19" font-size="13" font-weight="700" fill="#FFFFFF">Tier 1  ·  Presentation  ·  前端層 （VLAN 10 — Client Zone）</text>
  <text x="1225" y="19" text-anchor="end" font-size="10" fill="#BEE3F8" font-style="italic">使用者端設備 · 無伺服器資料</text>

  <g transform="translate(20, 42)">
    <rect width="200" height="124" rx="6" fill="#FFFFFF" stroke="#2C5282" stroke-width="1"/>
    <text x="100" y="22" text-anchor="middle" font-size="11" font-weight="700" fill="#1A365D">座席 PC 叢集</text>
    <text x="100" y="36" text-anchor="middle" font-size="9" fill="#4A5568">Agent Workstations</text>
    <g transform="translate(20, 44)">
      <rect width="160" height="20" rx="2" fill="#EBF8FF" stroke="#2C5282"/>
      <text x="80" y="14" text-anchor="middle" font-size="9" fill="#2C5282">Windows 10/11 · Electron</text>

      <rect y="24" width="160" height="20" rx="2" fill="#EBF8FF" stroke="#2C5282"/>
      <text x="80" y="38" text-anchor="middle" font-size="9" fill="#2C5282">50 – 10,000 PCs</text>

      <rect y="48" width="160" height="20" rx="2" fill="#EBF8FF" stroke="#2C5282"/>
      <text x="80" y="62" text-anchor="middle" font-size="9" fill="#2C5282">Headset + USB 麥克風</text>
    </g>

    <rect x="216" y="0" width="180" height="124" rx="6" fill="#FFFFFF" stroke="#2C5282" stroke-width="1"/>
    <text x="306" y="22" text-anchor="middle" font-size="11" font-weight="700" fill="#1A365D">主管 / QM 工作站</text>
    <text x="306" y="36" text-anchor="middle" font-size="9" fill="#4A5568">Supervisor &amp; QM PCs</text>
    <g transform="translate(236, 44)">
      <rect width="140" height="20" rx="2" fill="#EBF8FF" stroke="#2C5282"/>
      <text x="70" y="14" text-anchor="middle" font-size="9" fill="#2C5282">Console + Wallboard</text>

      <rect y="24" width="140" height="20" rx="2" fill="#EBF8FF" stroke="#2C5282"/>
      <text x="70" y="38" text-anchor="middle" font-size="9" fill="#2C5282">雙螢幕配置</text>

      <rect y="48" width="140" height="20" rx="2" fill="#EBF8FF" stroke="#2C5282"/>
      <text x="70" y="62" text-anchor="middle" font-size="9" fill="#2C5282">Monitor / Whisper / Barge</text>
    </g>

    <rect x="412" y="0" width="180" height="124" rx="6" fill="#FFFFFF" stroke="#2C5282" stroke-width="1"/>
    <text x="502" y="22" text-anchor="middle" font-size="11" font-weight="700" fill="#1A365D">Admin / IT 工作站</text>
    <text x="502" y="36" text-anchor="middle" font-size="9" fill="#4A5568">Admin Terminals</text>
    <g transform="translate(432, 44)">
      <rect width="140" height="20" rx="2" fill="#FED7D7" stroke="#9B2C2C"/>
      <text x="70" y="14" text-anchor="middle" font-size="9" fill="#742A2A">Jumpbox / PAM 必經</text>

      <rect y="24" width="140" height="20" rx="2" fill="#EBF8FF" stroke="#2C5282"/>
      <text x="70" y="38" text-anchor="middle" font-size="9" fill="#2C5282">配置 / 發布 / 監控</text>

      <rect y="48" width="140" height="20" rx="2" fill="#EBF8FF" stroke="#2C5282"/>
      <text x="70" y="62" text-anchor="middle" font-size="9" fill="#2C5282">MFA + 硬體 Token</text>
    </g>

    <rect x="608" y="0" width="180" height="124" rx="6" fill="#FFFFFF" stroke="#2C5282" stroke-width="1"/>
    <text x="698" y="22" text-anchor="middle" font-size="11" font-weight="700" fill="#1A365D">稽核 / 合規站</text>
    <text x="698" y="36" text-anchor="middle" font-size="9" fill="#4A5568">Auditor Stations</text>
    <g transform="translate(628, 44)">
      <rect width="140" height="20" rx="2" fill="#FED7D7" stroke="#9B2C2C"/>
      <text x="70" y="14" text-anchor="middle" font-size="9" fill="#742A2A">僅讀稽核日誌</text>

      <rect y="24" width="140" height="20" rx="2" fill="#EBF8FF" stroke="#2C5282"/>
      <text x="70" y="38" text-anchor="middle" font-size="9" fill="#2C5282">獨立網段 VLAN 11</text>

      <rect y="48" width="140" height="20" rx="2" fill="#EBF8FF" stroke="#2C5282"/>
      <text x="70" y="62" text-anchor="middle" font-size="9" fill="#2C5282">不可存取 PII</text>
    </g>

    <rect x="804" y="0" width="200" height="124" rx="6" fill="#FED7D7" stroke="#9B2C2C" stroke-width="1.5"/>
    <text x="904" y="22" text-anchor="middle" font-size="11" font-weight="700" fill="#742A2A">DMZ · 客戶自助</text>
    <text x="904" y="36" text-anchor="middle" font-size="9" fill="#9B2C2C">Web Chat · Mobile · Bot</text>
    <g transform="translate(824, 44)">
      <rect width="160" height="20" rx="2" fill="#FFFFFF" stroke="#9B2C2C"/>
      <text x="80" y="14" text-anchor="middle" font-size="9" fill="#742A2A">Web Chat Widget</text>

      <rect y="24" width="160" height="20" rx="2" fill="#FFFFFF" stroke="#9B2C2C"/>
      <text x="80" y="38" text-anchor="middle" font-size="9" fill="#742A2A">Mobile App / Visual IVR</text>

      <rect y="48" width="160" height="20" rx="2" fill="#FFFFFF" stroke="#9B2C2C"/>
      <text x="80" y="62" text-anchor="middle" font-size="9" fill="#742A2A">VLAN 20 · DMZ</text>
    </g>

    <rect x="1020" y="0" width="180" height="124" rx="6" fill="#FFFFFF" stroke="#2C5282" stroke-width="1"/>
    <text x="1110" y="22" text-anchor="middle" font-size="11" font-weight="700" fill="#1A365D">IP 話機 / Headset</text>
    <text x="1110" y="36" text-anchor="middle" font-size="9" fill="#4A5568">Desk Phones (選)</text>
    <g transform="translate(1040, 44)">
      <rect width="140" height="20" rx="2" fill="#EBF8FF" stroke="#2C5282"/>
      <text x="70" y="14" text-anchor="middle" font-size="9" fill="#2C5282">SIP + PoE</text>

      <rect y="24" width="140" height="20" rx="2" fill="#EBF8FF" stroke="#2C5282"/>
      <text x="70" y="38" text-anchor="middle" font-size="9" fill="#2C5282">VLAN 12 · 話機專用</text>

      <rect y="48" width="140" height="20" rx="2" fill="#EBF8FF" stroke="#2C5282"/>
      <text x="70" y="62" text-anchor="middle" font-size="9" fill="#2C5282">軟話機（座席內建）備選</text>
    </g>
  </g>
</g>

<g transform="translate(20, 374)">
  <rect width="1240" height="36" rx="3" fill="url(#fw-pattern)" stroke="#9B2C2C" stroke-width="1.5"/>
  <rect x="40" y="5" width="1160" height="26" rx="3" fill="#FFFFFF" stroke="#9B2C2C"/>
  <text x="60" y="22" font-size="11" font-weight="700" fill="#742A2A">FW-1  內部防火牆  ·  Client ↔ App</text>
  <text x="320" y="22" font-size="9" fill="#742A2A">Allow: HTTPS/443 · WSS/443 · SIP/5060 · SIPS/5061 · RTP 10000-20000/UDP · Jumpbox SSH/22</text>
  <text x="1190" y="22" text-anchor="end" font-size="9" fill="#742A2A">Deny ALL else · IDS 監測</text>
</g>

<g transform="translate(20, 420)">
  <rect width="1240" height="280" rx="8" fill="#D6EAFD" stroke="#2C5282" stroke-width="1.5"/>
  <rect width="1240" height="28" rx="8" fill="#2B6CB0"/>
  <rect y="20" width="1240" height="8" fill="#2B6CB0"/>
  <text x="15" y="19" font-size="13" font-weight="700" fill="#FFFFFF">Tier 2  ·  Application  ·  應用層 （VLAN 30 — Server Zone · Compute）</text>
  <text x="1225" y="19" text-anchor="end" font-size="10" fill="#BEE3F8" font-style="italic">業務邏輯 · 無狀態服務 · 水平擴展</text>

  <g transform="translate(20, 42)">
    <text x="0" y="12" font-size="10" font-weight="700" fill="#1A365D">Ingress Layer（入站接收）</text>

    <rect width="200" height="62" rx="6" y="18" fill="#FFFFFF" stroke="#2C5282" stroke-width="1"/>
    <text x="100" y="38" text-anchor="middle" font-size="10" font-weight="700" fill="#1A365D">API Gateway / Nginx</text>
    <text x="100" y="54" text-anchor="middle" font-size="9" fill="#4A5568">TLS 終結 · 路由 · Rate Limit</text>
    <text x="100" y="68" text-anchor="middle" font-size="9" fill="#4A5568">:443 → 內部服務</text>

    <rect x="216" y="18" width="200" height="62" rx="6" fill="#FFFFFF" stroke="#2C5282" stroke-width="1"/>
    <text x="316" y="38" text-anchor="middle" font-size="10" font-weight="700" fill="#1A365D">Load Balancer (HA)</text>
    <text x="316" y="54" text-anchor="middle" font-size="9" fill="#4A5568">F5 / HAProxy / KeepAlived</text>
    <text x="316" y="68" text-anchor="middle" font-size="9" fill="#4A5568">VIP + Health Check</text>

    <rect x="432" y="18" width="200" height="62" rx="6" fill="#FFFFFF" stroke="#2C5282" stroke-width="1"/>
    <text x="532" y="38" text-anchor="middle" font-size="10" font-weight="700" fill="#1A365D">SIP Proxy / SBC</text>
    <text x="532" y="54" text-anchor="middle" font-size="9" fill="#4A5568">Session Border Control</text>
    <text x="532" y="68" text-anchor="middle" font-size="9" fill="#4A5568">:5061 SIPS · RTP relay</text>

    <rect x="648" y="18" width="200" height="62" rx="6" fill="#FFFFFF" stroke="#2C5282" stroke-width="1"/>
    <text x="748" y="38" text-anchor="middle" font-size="10" font-weight="700" fill="#1A365D">WebSocket Broker</text>
    <text x="748" y="54" text-anchor="middle" font-size="9" fill="#4A5568">WSS 長連線 (sticky)</text>
    <text x="748" y="68" text-anchor="middle" font-size="9" fill="#4A5568">Event 推播到 Desktop</text>

    <rect x="864" y="18" width="200" height="62" rx="6" fill="#FFFFFF" stroke="#2C5282" stroke-width="1"/>
    <text x="964" y="38" text-anchor="middle" font-size="10" font-weight="700" fill="#1A365D">Reverse Proxy / WAF</text>
    <text x="964" y="54" text-anchor="middle" font-size="9" fill="#4A5568">ModSecurity / Cloudflare</text>
    <text x="964" y="68" text-anchor="middle" font-size="9" fill="#4A5568">OWASP Top 10 防護</text>

    <rect x="1080" y="18" width="140" height="62" rx="6" fill="#FFFFFF" stroke="#2C5282" stroke-width="1"/>
    <text x="1150" y="38" text-anchor="middle" font-size="10" font-weight="700" fill="#1A365D">DNS / NTP</text>
    <text x="1150" y="54" text-anchor="middle" font-size="9" fill="#4A5568">內部解析</text>
    <text x="1150" y="68" text-anchor="middle" font-size="9" fill="#4A5568">時間同步</text>
  </g>

  <g transform="translate(20, 130)">
    <text x="0" y="12" font-size="10" font-weight="700" fill="#1A365D">Core Services（核心業務）</text>

    <rect width="200" height="62" rx="6" y="18" fill="#FFFFFF" stroke="#2C5282" stroke-width="1"/>
    <text x="100" y="38" text-anchor="middle" font-size="10" font-weight="700" fill="#1A365D">VOXEN App Cluster</text>
    <text x="100" y="54" text-anchor="middle" font-size="9" fill="#4A5568">L3-L6 · K8s / 3+ nodes</text>
    <text x="100" y="68" text-anchor="middle" font-size="9" fill="#4A5568">Node.js / TypeScript</text>

    <rect x="216" y="18" width="200" height="62" rx="6" fill="#FFFFFF" stroke="#2C5282" stroke-width="1"/>
    <text x="316" y="38" text-anchor="middle" font-size="10" font-weight="700" fill="#1A365D">3CX PBX (HA)</text>
    <text x="316" y="54" text-anchor="middle" font-size="9" fill="#4A5568">主備雙機 · 共用儲存</text>
    <text x="316" y="68" text-anchor="middle" font-size="9" fill="#4A5568">:5060/61 SIP · REST</text>

    <rect x="432" y="18" width="200" height="62" rx="6" fill="#FFFFFF" stroke="#2C5282" stroke-width="1"/>
    <text x="532" y="38" text-anchor="middle" font-size="10" font-weight="700" fill="#1A365D">Event Bus Broker</text>
    <text x="532" y="54" text-anchor="middle" font-size="9" fill="#4A5568">Kafka / NATS · 3 nodes</text>
    <text x="532" y="68" text-anchor="middle" font-size="9" fill="#4A5568">:9092 / :4222</text>

    <rect x="648" y="18" width="200" height="62" rx="6" fill="#FED7AA" stroke="#C05621" stroke-width="1.5"/>
    <text x="748" y="36" text-anchor="middle" font-size="10" font-weight="700" fill="#7B341E">AI Service + Agent</text>
    <text x="748" y="50" text-anchor="middle" font-size="9" fill="#7B341E">L4 + AI Agent Runtime</text>
    <text x="748" y="62" text-anchor="middle" font-size="9" fill="#7B341E">VLAN 31 · GPU Pool</text>
    <text x="748" y="74" text-anchor="middle" font-size="8" fill="#9B2C2C">⭐ Agent 在此跑</text>

    <rect x="864" y="18" width="200" height="62" rx="6" fill="#FFFFFF" stroke="#2C5282" stroke-width="1"/>
    <text x="964" y="38" text-anchor="middle" font-size="10" font-weight="700" fill="#1A365D">L1 Adapters Fleet</text>
    <text x="964" y="54" text-anchor="middle" font-size="9" fill="#4A5568">PBX · CRM · MSG · IDP</text>
    <text x="964" y="68" text-anchor="middle" font-size="9" fill="#4A5568">每 Adapter 獨立服務</text>

    <rect x="1080" y="18" width="140" height="62" rx="6" fill="#FFFFFF" stroke="#2C5282" stroke-width="1"/>
    <text x="1150" y="38" text-anchor="middle" font-size="10" font-weight="700" fill="#1A365D">Session Store</text>
    <text x="1150" y="54" text-anchor="middle" font-size="9" fill="#4A5568">Redis Cluster</text>
    <text x="1150" y="68" text-anchor="middle" font-size="9" fill="#4A5568">:6379</text>
  </g>

  <g transform="translate(20, 218)">
    <text x="0" y="12" font-size="10" font-weight="700" fill="#1A365D">Support / OAM（維運管理）</text>

    <rect width="160" height="44" rx="6" y="18" fill="#FED7D7" stroke="#9B2C2C" stroke-width="1"/>
    <text x="80" y="36" text-anchor="middle" font-size="10" font-weight="700" fill="#742A2A">SIEM Forwarder</text>
    <text x="80" y="52" text-anchor="middle" font-size="8" fill="#9B2C2C">syslog / TLS</text>

    <rect x="176" y="18" width="160" height="44" rx="6" fill="#FEF3C7" stroke="#D97706" stroke-width="1"/>
    <text x="256" y="36" text-anchor="middle" font-size="10" font-weight="700" fill="#78350F">Monitoring</text>
    <text x="256" y="52" text-anchor="middle" font-size="8" fill="#92400E">Prometheus · Grafana</text>

    <rect x="352" y="18" width="160" height="44" rx="6" fill="#FEF3C7" stroke="#D97706" stroke-width="1"/>
    <text x="432" y="36" text-anchor="middle" font-size="10" font-weight="700" fill="#78350F">Log Aggregation</text>
    <text x="432" y="52" text-anchor="middle" font-size="8" fill="#92400E">Loki · Elastic</text>

    <rect x="528" y="18" width="160" height="44" rx="6" fill="#FEF3C7" stroke="#D97706" stroke-width="1"/>
    <text x="608" y="36" text-anchor="middle" font-size="10" font-weight="700" fill="#78350F">Tracing</text>
    <text x="608" y="52" text-anchor="middle" font-size="8" fill="#92400E">OpenTelemetry · Tempo</text>

    <rect x="704" y="18" width="160" height="44" rx="6" fill="#FFFFFF" stroke="#2C5282" stroke-width="1"/>
    <text x="784" y="36" text-anchor="middle" font-size="10" font-weight="700" fill="#1A365D">Config Manager</text>
    <text x="784" y="52" text-anchor="middle" font-size="8" fill="#4A5568">Vault · Consul</text>

    <rect x="880" y="18" width="160" height="44" rx="6" fill="#FFFFFF" stroke="#2C5282" stroke-width="1"/>
    <text x="960" y="36" text-anchor="middle" font-size="10" font-weight="700" fill="#1A365D">CI/CD Runner</text>
    <text x="960" y="52" text-anchor="middle" font-size="8" fill="#4A5568">GitLab · Jenkins</text>

    <rect x="1056" y="18" width="164" height="44" rx="6" fill="#FFFFFF" stroke="#2C5282" stroke-width="1"/>
    <text x="1138" y="36" text-anchor="middle" font-size="10" font-weight="700" fill="#1A365D">Container Registry</text>
    <text x="1138" y="52" text-anchor="middle" font-size="8" fill="#4A5568">Harbor · ECR</text>
  </g>
</g>

<g transform="translate(20, 710)">
  <rect width="1240" height="36" rx="3" fill="url(#fw-pattern)" stroke="#9B2C2C" stroke-width="1.5"/>
  <rect x="40" y="5" width="1160" height="26" rx="3" fill="#FFFFFF" stroke="#9B2C2C"/>
  <text x="60" y="22" font-size="11" font-weight="700" fill="#742A2A">FW-2  資料層防火牆  ·  App ↔ Data</text>
  <text x="340" y="22" font-size="9" fill="#742A2A">Allow: PostgreSQL/5432 · Redis/6379 · Qdrant/6333 · NFS/2049 · S3-TLS/443 · KMS gRPC/50051</text>
  <text x="1190" y="22" text-anchor="end" font-size="9" fill="#742A2A">Service Account 白名單</text>
</g>

<g transform="translate(20, 756)">
  <rect width="1240" height="230" rx="8" fill="#8EC6EA" stroke="#2C5282" stroke-width="1.5"/>
  <rect width="1240" height="28" rx="8" fill="#1A365D"/>
  <rect y="20" width="1240" height="8" fill="#1A365D"/>
  <text x="15" y="19" font-size="13" font-weight="700" fill="#FFFFFF">Tier 3  ·  Data  ·  資料層 （VLAN 40 — Data Zone · 高度保護）</text>
  <text x="1225" y="19" text-anchor="end" font-size="10" fill="#BEE3F8" font-style="italic">持久化儲存 · 有狀態 · 加密 at rest</text>

  <g transform="translate(20, 42)">
    <rect width="190" height="70" rx="6" fill="#FFFFFF" stroke="#2C5282" stroke-width="1"/>
    <text x="95" y="22" text-anchor="middle" font-size="10" font-weight="700" fill="#1A365D">PostgreSQL HA</text>
    <text x="95" y="38" text-anchor="middle" font-size="9" fill="#4A5568">Primary + 2 Replica</text>
    <text x="95" y="52" text-anchor="middle" font-size="9" fill="#4A5568">Patroni / 自動 failover</text>
    <text x="95" y="64" text-anchor="middle" font-size="9" fill="#276749">AES-256 TDE</text>

    <rect x="206" y="0" width="190" height="70" rx="6" fill="#FFFFFF" stroke="#2C5282" stroke-width="1"/>
    <text x="301" y="22" text-anchor="middle" font-size="10" font-weight="700" fill="#1A365D">Redis Cache Cluster</text>
    <text x="301" y="38" text-anchor="middle" font-size="9" fill="#4A5568">3 Master + 3 Replica</text>
    <text x="301" y="52" text-anchor="middle" font-size="9" fill="#4A5568">Session · Queue · Lock</text>
    <text x="301" y="64" text-anchor="middle" font-size="9" fill="#276749">TLS + AUTH</text>

    <rect x="412" y="0" width="190" height="70" rx="6" fill="#E9D8FD" stroke="#6B46C1" stroke-width="1.5"/>
    <text x="507" y="22" text-anchor="middle" font-size="10" font-weight="700" fill="#44337A">Vector DB (Qdrant)</text>
    <text x="507" y="38" text-anchor="middle" font-size="9" fill="#6B46C1">KB Embedding / RAG</text>
    <text x="507" y="52" text-anchor="middle" font-size="9" fill="#6B46C1">HA 3 節點</text>
    <text x="507" y="64" text-anchor="middle" font-size="9" fill="#276749">gRPC + mTLS</text>

    <rect x="618" y="0" width="190" height="70" rx="6" fill="#FFFFFF" stroke="#2C5282" stroke-width="1"/>
    <text x="713" y="22" text-anchor="middle" font-size="10" font-weight="700" fill="#1A365D">Recording Storage</text>
    <text x="713" y="38" text-anchor="middle" font-size="9" fill="#4A5568">SAN / NAS / S3</text>
    <text x="713" y="52" text-anchor="middle" font-size="9" fill="#4A5568">WORM 模式可選</text>
    <text x="713" y="64" text-anchor="middle" font-size="9" fill="#276749">per-tenant key</text>

    <rect x="824" y="0" width="200" height="70" rx="6" fill="#FED7D7" stroke="#9B2C2C" stroke-width="1.5"/>
    <text x="924" y="22" text-anchor="middle" font-size="10" font-weight="700" fill="#742A2A">Audit Log Store</text>
    <text x="924" y="38" text-anchor="middle" font-size="9" fill="#9B2C2C">Append-only + hash chain</text>
    <text x="924" y="52" text-anchor="middle" font-size="9" fill="#9B2C2C">獨立 VLAN 41 · 僅寫入</text>
    <text x="924" y="64" text-anchor="middle" font-size="9" fill="#276749">7 年保留 · 不可刪</text>

    <rect x="1034" y="0" width="186" height="70" rx="6" fill="#1A365D" stroke="#0A1A2D" stroke-width="2"/>
    <text x="1127" y="22" text-anchor="middle" font-size="10" font-weight="700" fill="#FFFFFF">KMS / HSM</text>
    <text x="1127" y="38" text-anchor="middle" font-size="9" fill="#BEE3F8">Vault · Azure Key Vault</text>
    <text x="1127" y="52" text-anchor="middle" font-size="9" fill="#BEE3F8">VLAN 42 · 物理 HSM</text>
    <text x="1127" y="64" text-anchor="middle" font-size="9" fill="#BEE3F8">PKCS#11 / KMIP</text>

    <g transform="translate(0, 82)">
      <rect width="190" height="70" rx="6" fill="#FFFFFF" stroke="#2C5282" stroke-width="1"/>
      <text x="95" y="22" text-anchor="middle" font-size="10" font-weight="700" fill="#1A365D">Customer 360 DB</text>
      <text x="95" y="38" text-anchor="middle" font-size="9" fill="#4A5568">FM-L2-C360</text>
      <text x="95" y="52" text-anchor="middle" font-size="9" fill="#4A5568">欄位級加密 (PII)</text>
      <text x="95" y="64" text-anchor="middle" font-size="9" fill="#276749">BYOK 可選</text>

      <rect x="206" y="0" width="190" height="70" rx="6" fill="#FFFFFF" stroke="#2C5282" stroke-width="1"/>
      <text x="301" y="22" text-anchor="middle" font-size="10" font-weight="700" fill="#1A365D">Interaction Archive</text>
      <text x="301" y="38" text-anchor="middle" font-size="9" fill="#4A5568">FM-L2-ARCH</text>
      <text x="301" y="52" text-anchor="middle" font-size="9" fill="#4A5568">冷熱分層儲存</text>
      <text x="301" y="64" text-anchor="middle" font-size="9" fill="#276749">分區保留</text>

      <rect x="412" y="0" width="190" height="70" rx="6" fill="#FFFFFF" stroke="#2C5282" stroke-width="1"/>
      <text x="507" y="22" text-anchor="middle" font-size="10" font-weight="700" fill="#1A365D">Identity Vault</text>
      <text x="507" y="38" text-anchor="middle" font-size="9" fill="#4A5568">FM-L2-ID-VAULT</text>
      <text x="507" y="52" text-anchor="middle" font-size="9" fill="#4A5568">認證狀態 · 風險分</text>
      <text x="507" y="64" text-anchor="middle" font-size="9" fill="#276749">高度加密</text>

      <rect x="618" y="0" width="190" height="70" rx="6" fill="#FFFFFF" stroke="#2C5282" stroke-width="1"/>
      <text x="713" y="22" text-anchor="middle" font-size="10" font-weight="700" fill="#1A365D">Feature Store</text>
      <text x="713" y="38" text-anchor="middle" font-size="9" fill="#4A5568">FM-L2-FS</text>
      <text x="713" y="52" text-anchor="middle" font-size="9" fill="#4A5568">ML 特徵快取</text>
      <text x="713" y="64" text-anchor="middle" font-size="9" fill="#276749">供 L4 取用</text>

      <rect x="824" y="0" width="200" height="70" rx="6" fill="#FFFFFF" stroke="#2C5282" stroke-width="1"/>
      <text x="924" y="22" text-anchor="middle" font-size="10" font-weight="700" fill="#1A365D">Backup Storage</text>
      <text x="924" y="38" text-anchor="middle" font-size="9" fill="#4A5568">離線 / 異地</text>
      <text x="924" y="52" text-anchor="middle" font-size="9" fill="#4A5568">Velero / Veeam · 3-2-1</text>
      <text x="924" y="64" text-anchor="middle" font-size="9" fill="#276749">每日增量 · 每週全量</text>

      <rect x="1034" y="0" width="186" height="70" rx="6" fill="#FFFFFF" stroke="#2C5282" stroke-width="1"/>
      <text x="1127" y="22" text-anchor="middle" font-size="10" font-weight="700" fill="#1A365D">Data Catalog</text>
      <text x="1127" y="38" text-anchor="middle" font-size="9" fill="#4A5568">FM-L2-CAT</text>
      <text x="1127" y="52" text-anchor="middle" font-size="9" fill="#4A5568">中介資料治理</text>
      <text x="1127" y="64" text-anchor="middle" font-size="9" fill="#276749">DataHub / Atlas</text>
    </g>
  </g>
</g>

<g transform="translate(20, 1000)">
  <rect width="1240" height="100" rx="6" fill="#F7FAFC" stroke="#4A5568"/>
  <text x="15" y="20" font-size="11" font-weight="700" fill="#2D3748">網段分配（VLAN Layout）&amp; 關鍵設計原則</text>

  <g font-size="10" fill="#4A5568">
    <text x="15" y="42"><tspan font-weight="700" fill="#2C5282">VLAN 10</tspan> Agent/Supervisor</text>
    <text x="215" y="42"><tspan font-weight="700" fill="#2C5282">VLAN 11</tspan> Auditor 獨立</text>
    <text x="370" y="42"><tspan font-weight="700" fill="#2C5282">VLAN 12</tspan> IP 話機</text>
    <text x="500" y="42"><tspan font-weight="700" fill="#9B2C2C">VLAN 20</tspan> DMZ</text>
    <text x="620" y="42"><tspan font-weight="700" fill="#2C5282">VLAN 30</tspan> App</text>
    <text x="720" y="42"><tspan font-weight="700" fill="#7B341E">VLAN 31</tspan> AI + Agent ⭐</text>
    <text x="840" y="42"><tspan font-weight="700" fill="#D97706">VLAN 32</tspan> OAM</text>
    <text x="960" y="42"><tspan font-weight="700" fill="#2C5282">VLAN 40</tspan> Data</text>
    <text x="1080" y="42"><tspan font-weight="700" fill="#9B2C2C">VLAN 41</tspan> Audit</text>

    <text x="15" y="62"><tspan font-weight="700" fill="#1A365D">VLAN 42</tspan> KMS/HSM 最高安</text>
    <text x="240" y="62"><tspan font-weight="700" fill="#D97706">VLAN 50</tspan> Backup/DR</text>
    <text x="420" y="62"><tspan font-weight="700" fill="#276749">VLAN 99</tspan> Health/heartbeat</text>

    <text x="15" y="82" font-weight="600" fill="#2D3748">原則：① 每層間強制防火牆 · ② 同層東西向流量默認拒絕 · ③ 管理流量走獨立 OAM VLAN · ④ 資料層絕不直連外網 · ⑤ 所有跨網段流量以服務帳號 + mTLS 認證</text>
  </g>
</g>

<text x="1265" y="1110" text-anchor="end" font-size="9" fill="#A0AEC0" font-style="italic">VOXEN SRS v2.8  ·  3-tier Network (含 Agent VLAN)  ·  2026-04</text>

</svg>
