<?xml version="1.0" encoding="UTF-8"?>
<svg xmlns="http://www.w3.org/2000/svg" viewBox="0 0 512 512">
  <!-- Background -->
  <defs>
    <linearGradient id="bg" x1="0" y1="0" x2="1" y2="1">
      <stop offset="0%" stop-color="#0ea5e9"/>
      <stop offset="100%" stop-color="#0369a1"/>
    </linearGradient>
  </defs>
  <rect x="0" y="0" width="512" height="512" rx="96" fill="url(#bg)"/>

  <!-- Phone handset (classic receiver) -->
  <g fill="#ffffff" transform="translate(104 120) rotate(-12 152 152)">
    <path d="M48 16
             C 28 16, 16 32, 16 52
             L 16 104
             C 16 128, 32 148, 58 156
             C 70 160, 82 160, 96 158
             L 108 252
             C 108 272, 124 288, 148 288
             L 200 288
             C 220 288, 236 272, 236 252
             L 244 164
             C 262 156, 276 140, 280 120
             L 280 68
             C 280 48, 264 32, 244 32
             L 208 28
             C 196 28, 188 36, 188 48
             C 188 60, 196 68, 208 68
             L 224 68
             C 228 68, 232 72, 232 76
             L 232 112
             C 232 128, 220 140, 204 140
             L 92 140
             C 76 140, 64 128, 64 112
             L 64 76
             C 64 72, 68 68, 72 68
             L 88 68
             C 100 68, 108 60, 108 48
             C 108 36, 100 28, 88 28
             L 48 16 Z"
          opacity="0.95"/>
  </g>

  <!-- "ADA" text below -->
  <text x="256" y="440" text-anchor="middle"
        font-family="Helvetica, Arial, sans-serif"
        font-size="88" font-weight="800" fill="#ffffff" letter-spacing="8">
    ADA
  </text>
</svg>
